<svg width="25" height="25" viewBox="0 0 29 29" fill="none" xmlns="http://www.w3.org/2000/svg">
<path d="M7.24998 9.66671C8.58467 9.66671 9.66665 8.58473 9.66665 7.25004C9.66665 5.91535 8.58467 4.83337 7.24998 4.83337C5.91529 4.83337 4.83331 5.91535 4.83331 7.25004C4.83331 8.58473 5.91529 9.66671 7.24998 9.66671Z" stroke="url(#paint0_linear_232_66)" stroke-width="2" stroke-linecap="round" stroke-linejoin="round"/>
<path d="M21.75 24.1667C23.0847 24.1667 24.1666 23.0847 24.1666 21.75C24.1666 20.4154 23.0847 19.3334 21.75 19.3334C20.4153 19.3334 19.3333 20.4154 19.3333 21.75C19.3333 23.0847 20.4153 24.1667 21.75 24.1667Z" stroke="url(#paint1_linear_232_66)" stroke-width="2" stroke-linecap="round" stroke-linejoin="round"/>
<path d="M13.2917 7.25H19.3334C19.9743 7.25 20.589 7.50461 21.0422 7.95783C21.4954 8.41104 21.75 9.02573 21.75 9.66667V19.3333" stroke="url(#paint2_linear_232_66)" stroke-width="2" stroke-linecap="round" stroke-linejoin="round"/>
<path d="M16.9167 10.875L13.2917 7.25L16.9167 3.625" stroke="url(#paint3_linear_232_66)" stroke-width="2" stroke-linecap="round" stroke-linejoin="round"/>
<path d="M15.7083 21.75H9.66667C9.02573 21.75 8.41104 21.4953 7.95783 21.0421C7.50461 20.5889 7.25 19.9742 7.25 19.3333V9.66663" stroke="url(#paint4_linear_232_66)" stroke-width="2" stroke-linecap="round" stroke-linejoin="round"/>
<path d="M12.0833 18.125L15.7083 21.75L12.0833 25.375" stroke="url(#paint5_linear_232_66)" stroke-width="2" stroke-linecap="round" stroke-linejoin="round"/>
<defs>
<linearGradient id="paint0_linear_232_66" x1="5.04499" y1="6.92782" x2="9.66665" y2="6.92782" gradientUnits="userSpaceOnUse">
<stop stop-color="#FF4848"/>
<stop offset="1" stop-color="#AA2727"/>
</linearGradient>
<linearGradient id="paint1_linear_232_66" x1="19.545" y1="21.4278" x2="24.1666" y2="21.4278" gradientUnits="userSpaceOnUse">
<stop stop-color="#FF4848"/>
<stop offset="1" stop-color="#AA2727"/>
</linearGradient>
<linearGradient id="paint2_linear_232_66" x1="13.6621" y1="12.4861" x2="21.75" y2="12.4861" gradientUnits="userSpaceOnUse">
<stop stop-color="#FF4848"/>
<stop offset="1" stop-color="#AA2727"/>
</linearGradient>
<linearGradient id="paint3_linear_232_66" x1="13.4504" y1="6.76667" x2="16.9167" y2="6.76667" gradientUnits="userSpaceOnUse">
<stop stop-color="#FF4848"/>
<stop offset="1" stop-color="#AA2727"/>
</linearGradient>
<linearGradient id="paint4_linear_232_66" x1="7.62044" y1="14.9027" x2="15.7083" y2="14.9027" gradientUnits="userSpaceOnUse">
<stop stop-color="#FF4848"/>
<stop offset="1" stop-color="#AA2727"/>
</linearGradient>
<linearGradient id="paint5_linear_232_66" x1="12.2421" y1="21.2667" x2="15.7083" y2="21.2667" gradientUnits="userSpaceOnUse">
<stop stop-color="#FF4848"/>
<stop offset="1" stop-color="#AA2727"/>
</linearGradient>
</defs>
</svg>
