<svg width="25" height="25" viewBox="0 0 29 29" fill="none" xmlns="http://www.w3.org/2000/svg">
<path d="M14.5 13.2917C17.1694 13.2917 19.3334 11.1277 19.3334 8.45833C19.3334 5.78896 17.1694 3.625 14.5 3.625C11.8306 3.625 9.66669 5.78896 9.66669 8.45833C9.66669 11.1277 11.8306 13.2917 14.5 13.2917Z" stroke="url(#paint0_linear_232_62)" stroke-width="2" stroke-linecap="round" stroke-linejoin="round"/>
<path d="M7.25 25.375V22.9583C7.25 21.6765 7.75922 20.4471 8.66565 19.5407C9.57208 18.6342 10.8015 18.125 12.0833 18.125H16.9167C18.1985 18.125 19.4279 18.6342 20.3343 19.5407C21.2408 20.4471 21.75 21.6765 21.75 22.9583V25.375" stroke="url(#paint1_linear_232_62)" stroke-width="2" stroke-linecap="round" stroke-linejoin="round"/>
<defs>
<linearGradient id="paint0_linear_232_62" x1="10.09" y1="7.81389" x2="19.3334" y2="7.81389" gradientUnits="userSpaceOnUse">
<stop stop-color="#FF4848"/>
<stop offset="1" stop-color="#AA2727"/>
</linearGradient>
<linearGradient id="paint1_linear_232_62" x1="7.88504" y1="21.2667" x2="21.75" y2="21.2667" gradientUnits="userSpaceOnUse">
<stop stop-color="#FF4848"/>
<stop offset="1" stop-color="#AA2727"/>
</linearGradient>
</defs>
</svg>
