<svg width="45" height="45" viewBox="0 0 45 45" fill="none" xmlns="http://www.w3.org/2000/svg">
<path fill-rule="evenodd" clip-rule="evenodd" d="M2.8125 22.5C2.8125 27.7214 4.88671 32.729 8.57883 36.4212C12.271 40.1133 17.2786 42.1875 22.5 42.1875C27.7214 42.1875 32.729 40.1133 36.4212 36.4212C40.1133 32.729 42.1875 27.7214 42.1875 22.5C42.1875 17.2786 40.1133 12.271 36.4212 8.57883C32.729 4.88671 27.7214 2.8125 22.5 2.8125C17.2786 2.8125 12.271 4.88671 8.57883 8.57883C4.88671 12.271 2.8125 17.2786 2.8125 22.5ZM45 22.5C45 28.4674 42.6295 34.1903 38.4099 38.4099C34.1903 42.6295 28.4674 45 22.5 45C16.5326 45 10.8097 42.6295 6.5901 38.4099C2.37053 34.1903 0 28.4674 0 22.5C0 16.5326 2.37053 10.8097 6.5901 6.5901C10.8097 2.37053 16.5326 0 22.5 0C28.4674 0 34.1903 2.37053 38.4099 6.5901C42.6295 10.8097 45 16.5326 45 22.5ZM23.9062 12.6562C23.9062 12.2833 23.7581 11.9256 23.4944 11.6619C23.2306 11.3982 22.873 11.25 22.5 11.25C22.127 11.25 21.7694 11.3982 21.5056 11.6619C21.2419 11.9256 21.0938 12.2833 21.0938 12.6562V28.9491L15.0581 22.9106C14.7941 22.6466 14.4359 22.4982 14.0625 22.4982C13.6891 22.4982 13.3309 22.6466 13.0669 22.9106C12.8028 23.1747 12.6545 23.5328 12.6545 23.9062C12.6545 24.2797 12.8028 24.6378 13.0669 24.9019L21.5044 33.3394C21.635 33.4703 21.7902 33.5742 21.961 33.6451C22.1319 33.716 22.315 33.7525 22.5 33.7525C22.685 33.7525 22.8681 33.716 23.039 33.6451C23.2098 33.5742 23.365 33.4703 23.4956 33.3394L31.9331 24.9019C32.1972 24.6378 32.3455 24.2797 32.3455 23.9062C32.3455 23.5328 32.1972 23.1747 31.9331 22.9106C31.6691 22.6466 31.3109 22.4982 30.9375 22.4982C30.5641 22.4982 30.2059 22.6466 29.9419 22.9106L23.9062 28.9491V12.6562Z" fill="url(#paint0_linear_255_1930)"/>
<defs>
<linearGradient id="paint0_linear_255_1930" x1="1.9708" y1="19.5" x2="45" y2="19.5" gradientUnits="userSpaceOnUse">
<stop stop-color="#FF4848"/>
<stop offset="1" stop-color="#AA2727"/>
</linearGradient>
</defs>
</svg>
