<svg width="27" height="27" viewBox="0 0 27 27" fill="none" xmlns="http://www.w3.org/2000/svg">
<path d="M7.84017 7.84017C7.91855 7.76159 8.01165 7.69925 8.11416 7.65672C8.21667 7.61418 8.32656 7.59229 8.43754 7.59229C8.54853 7.59229 8.65842 7.61418 8.76092 7.65672C8.86343 7.69925 8.95654 7.76159 9.03492 7.84017L13.5 12.307L17.9652 7.84017C18.0436 7.76172 18.1367 7.69949 18.2392 7.65703C18.3417 7.61458 18.4516 7.59273 18.5625 7.59273C18.6735 7.59273 18.7833 7.61458 18.8858 7.65703C18.9883 7.69949 19.0815 7.76172 19.1599 7.84017C19.2384 7.91862 19.3006 8.01175 19.3431 8.11425C19.3855 8.21674 19.4074 8.3266 19.4074 8.43754C19.4074 8.54849 19.3855 8.65834 19.3431 8.76084C19.3006 8.86334 19.2384 8.95647 19.1599 9.03492L14.6931 13.5L19.1599 17.9652C19.2384 18.0436 19.3006 18.1367 19.3431 18.2392C19.3855 18.3417 19.4074 18.4516 19.4074 18.5625C19.4074 18.6735 19.3855 18.7833 19.3431 18.8858C19.3006 18.9883 19.2384 19.0815 19.1599 19.1599C19.0815 19.2384 18.9883 19.3006 18.8858 19.343C18.7833 19.3855 18.6735 19.4074 18.5625 19.4074C18.4516 19.4074 18.3417 19.3855 18.2392 19.343C18.1367 19.3006 18.0436 19.2384 17.9652 19.1599L13.5 14.6931L9.03492 19.1599C8.95647 19.2384 8.86334 19.3006 8.76084 19.343C8.65834 19.3855 8.54849 19.4074 8.43754 19.4074C8.3266 19.4074 8.21674 19.3855 8.11425 19.343C8.01175 19.3006 7.91862 19.2384 7.84017 19.1599C7.76172 19.0815 7.69949 18.9883 7.65703 18.8858C7.61458 18.7833 7.59273 18.6735 7.59273 18.5625C7.59273 18.4516 7.61458 18.3417 7.65703 18.2392C7.69949 18.1367 7.76172 18.0436 7.84017 17.9652L12.307 13.5L7.84017 9.03492C7.76159 8.95654 7.69925 8.86343 7.65672 8.76092C7.61418 8.65842 7.59229 8.54853 7.59229 8.43754C7.59229 8.32656 7.61418 8.21667 7.65672 8.11416C7.69925 8.01165 7.76159 7.91854 7.84017 7.84017Z" fill="black"/>
</svg>
