<svg width="19" height="19" viewBox="0 0 19 19" fill="none" xmlns="http://www.w3.org/2000/svg">
<path d="M4.74999 16.6249C5.62444 16.6249 6.33332 15.916 6.33332 15.0416C6.33332 14.1671 5.62444 13.4583 4.74999 13.4583C3.87554 13.4583 3.16666 14.1671 3.16666 15.0416C3.16666 15.916 3.87554 16.6249 4.74999 16.6249Z" stroke="white" stroke-width="1.5" stroke-linecap="round" stroke-linejoin="round"/>
<path d="M13.4583 16.6249C14.3328 16.6249 15.0417 15.916 15.0417 15.0416C15.0417 14.1671 14.3328 13.4583 13.4583 13.4583C12.5839 13.4583 11.875 14.1671 11.875 15.0416C11.875 15.916 12.5839 16.6249 13.4583 16.6249Z" stroke="white" stroke-width="1.5" stroke-linecap="round" stroke-linejoin="round"/>
<path d="M13.4583 13.4583H4.74999V2.375H3.16666" stroke="white" stroke-width="1.5" stroke-linecap="round" stroke-linejoin="round"/>
<path d="M4.75 3.95825L15.8333 4.74992L15.0417 10.2916H4.75" stroke="white" stroke-width="1.5" stroke-linecap="round" stroke-linejoin="round"/>
</svg>
