<svg width="29" height="29" viewBox="0 0 29 29" fill="none" xmlns="http://www.w3.org/2000/svg">
<path d="M7.25001 9.66658C8.58469 9.66658 9.66667 8.58461 9.66667 7.24992C9.66667 5.91523 8.58469 4.83325 7.25001 4.83325C5.91532 4.83325 4.83334 5.91523 4.83334 7.24992C4.83334 8.58461 5.91532 9.66658 7.25001 9.66658Z" stroke="url(#paint0_linear_235_190)" stroke-width="2" stroke-linecap="round" stroke-linejoin="round"/>
<path d="M21.75 24.1666C23.0847 24.1666 24.1667 23.0846 24.1667 21.7499C24.1667 20.4152 23.0847 19.3333 21.75 19.3333C20.4153 19.3333 19.3333 20.4152 19.3333 21.7499C19.3333 23.0846 20.4153 24.1666 21.75 24.1666Z" stroke="url(#paint1_linear_235_190)" stroke-width="2" stroke-linecap="round" stroke-linejoin="round"/>
<path d="M13.2917 7.25H19.3333C19.9743 7.25 20.589 7.50461 21.0422 7.95783C21.4954 8.41104 21.75 9.02573 21.75 9.66667V19.3333" stroke="url(#paint2_linear_235_190)" stroke-width="2" stroke-linecap="round" stroke-linejoin="round"/>
<path d="M16.9167 10.875L13.2917 7.25L16.9167 3.625" stroke="url(#paint3_linear_235_190)" stroke-width="2" stroke-linecap="round" stroke-linejoin="round"/>
<path d="M15.7083 21.7501H9.66667C9.02573 21.7501 8.41104 21.4955 7.95783 21.0423C7.50461 20.589 7.25 19.9744 7.25 19.3334V9.66675" stroke="url(#paint4_linear_235_190)" stroke-width="2" stroke-linecap="round" stroke-linejoin="round"/>
<path d="M12.0833 18.125L15.7083 21.75L12.0833 25.375" stroke="url(#paint5_linear_235_190)" stroke-width="2" stroke-linecap="round" stroke-linejoin="round"/>
<defs>
<linearGradient id="paint0_linear_235_190" x1="5.04502" y1="6.9277" x2="9.66667" y2="6.9277" gradientUnits="userSpaceOnUse">
<stop stop-color="#FF4848"/>
<stop offset="1" stop-color="#AA2727"/>
</linearGradient>
<linearGradient id="paint1_linear_235_190" x1="19.545" y1="21.4277" x2="24.1667" y2="21.4277" gradientUnits="userSpaceOnUse">
<stop stop-color="#FF4848"/>
<stop offset="1" stop-color="#AA2727"/>
</linearGradient>
<linearGradient id="paint2_linear_235_190" x1="13.6621" y1="12.4861" x2="21.75" y2="12.4861" gradientUnits="userSpaceOnUse">
<stop stop-color="#FF4848"/>
<stop offset="1" stop-color="#AA2727"/>
</linearGradient>
<linearGradient id="paint3_linear_235_190" x1="13.4504" y1="6.76667" x2="16.9167" y2="6.76667" gradientUnits="userSpaceOnUse">
<stop stop-color="#FF4848"/>
<stop offset="1" stop-color="#AA2727"/>
</linearGradient>
<linearGradient id="paint4_linear_235_190" x1="7.62044" y1="14.9029" x2="15.7083" y2="14.9029" gradientUnits="userSpaceOnUse">
<stop stop-color="#FF4848"/>
<stop offset="1" stop-color="#AA2727"/>
</linearGradient>
<linearGradient id="paint5_linear_235_190" x1="12.2421" y1="21.2667" x2="15.7083" y2="21.2667" gradientUnits="userSpaceOnUse">
<stop stop-color="#FF4848"/>
<stop offset="1" stop-color="#AA2727"/>
</linearGradient>
</defs>
</svg>
